Coordinates
version=1
nRows=18
nColumns=28
inDegrees=yes

Units are S.I. units (second, meters, Newtons, ...)
Angles are in degrees.

endheader
time	pelvis_tilt	pelvis_list	pelvis_rotation	pelvis_tx	pelvis_ty	pelvis_tz	hip_flexion_r	hip_adduction_r	hip_rotation_r	knee_angle_r	ankle_angle_r	subtalar_angle_r	mtp_angle_r	hip_flexion_l	hip_adduction_l	hip_rotation_l	knee_angle_l	socket_flexion	socket_adduction	socket_rotation	socket_tx	socket_ty	socket_tz	foot_flex	lumbar_extension	lumbar_bending	lumbar_rotation
      0.63333333	      1.34838877	      4.10495013	     14.34950841	     -0.04486295	      1.00238312	      0.27793570	     22.08925588	     -7.31295537	    -14.50736605	     -7.78113624	     18.83983828	    -12.48442629	     -9.89975678	    -25.57002340	      0.81399421	     20.81666370	      1.24041750	      5.87034933	      0.00000000	      0.00000000	      0.00000000	      0.00000000	      0.00000000	     10.26719447	    -14.26023543	     -2.50731512	    -13.12600820
      0.63750000	      1.45639743	      4.00610520	     14.34269629	     -0.03823327	      1.00154181	      0.27793688	     22.25069178	     -7.18021781	    -14.29256059	     -8.72106127	     18.48769768	    -12.51705004	     -9.75057096	    -25.87958167	      0.66775077	     20.68381718	      0.94542244	      5.87823354	      0.00000000	      0.00000000	      0.00000000	      0.00000000	      0.00000000	     10.20506066	    -14.24757108	     -2.23281592	    -13.13809642
      0.64166667	      1.52374424	      3.88593575	     14.41440878	     -0.03177211	      1.00071749	      0.27801882	     22.38678551	     -7.01920209	    -13.95384817	     -9.53804889	     18.21636243	    -12.48827630	     -9.68833649	    -26.11018615	      0.45349968	     20.79788349	      0.65256407	      5.93304863	      0.00000000	      0.00000000	      0.00000000	      0.00000000	      0.00000000	     10.13525322	    -14.25370148	     -1.97889770	    -13.14491048
      0.64583333	      1.43163567	      4.06110757	     14.31110020	     -0.02535464	      0.99962113	      0.27833146	     22.96279471	     -7.25647303	    -13.84000665	    -10.86775191	     16.16464250	    -12.77075059	     -1.86922832	    -25.88019280	      0.81937608	     20.48011986	     -0.77334233	      5.30879690	      0.00000000	      0.00000000	      0.00000000	      0.00000000	      0.00000000	     10.05369649	    -14.14654251	     -2.13410208	    -13.16551527
      0.65000000	      1.50930549	      3.93043636	     14.37156824	     -0.01879799	      0.99887315	      0.27837400	     23.08425884	     -7.09174701	    -13.54406548	    -11.72206919	     15.85868728	    -12.74448375	     -1.88225704	    -26.10727673	      0.60896720	     20.57547953	     -1.06416037	      5.40756626	      0.00000000	      0.00000000	      0.00000000	      0.00000000	      0.00000000	      9.95211410	    -14.13609670	     -1.84784336	    -13.18285933
      0.65416667	      1.66231015	      3.83538482	     14.18053415	     -0.01209363	      0.99808347	      0.27878217	     23.35344033	     -6.91623619	    -13.36330564	    -12.95703697	     15.35157327	    -12.76136266	     -1.77993797	    -26.38095284	      0.56845094	     20.12867178	     -1.55608527	      5.38295451	      0.00000000	      0.00000000	      0.00000000	      0.00000000	      0.00000000	      9.83630082	    -14.18267854	     -1.62894015	    -13.20795082
      0.65833333	      1.74971968	      3.70598494	     14.19326111	     -0.00551430	      0.99743100	      0.27894279	     23.48842162	     -6.73429010	    -13.04795215	    -13.86606410	     15.03553162	    -12.72605481	     -1.73186546	    -26.56706218	      0.39790771	     20.15987256	     -1.96053597	      5.45524027	      0.00000000	      0.00000000	      0.00000000	      0.00000000	      0.00000000	      9.67168669	    -14.17657372	     -1.35637953	    -13.19087531
      0.66250000	      1.40317973	      3.95911093	     13.99815502	      0.00050588	      0.99620717	      0.27955988	     24.34011259	     -7.00400394	    -12.39835692	    -15.24427279	     13.99308529	    -13.12744285	      0.85062494	    -25.63419074	      1.08582227	     19.72460828	     -4.56117788	      4.22160482	      0.00000000	      0.00000000	      0.00000000	      0.00000000	      0.00000000	      9.50783322	    -13.86534278	     -1.73133574	    -12.80048575
      0.66666667	      1.43703201	      3.93671300	     14.11372233	      0.00680023	      0.99564065	      0.27960624	     24.55841270	     -7.03147705	    -12.33391927	    -16.25795133	     13.05653629	    -13.26244489	      3.11944105	    -25.31644528	      1.15640255	     19.68662729	     -6.27032975	      3.54606545	      0.00000000	      0.00000000	      0.00000000	      0.00000000	      0.00000000	      9.25980216	    -13.85906577	     -1.55903632	    -13.14669015
      0.67083333	      1.54939708	      3.75205760	     14.01075455	      0.01362742	      0.99506499	      0.27990575	     24.72205314	     -6.78443521	    -12.17464950	    -17.27961693	     12.66649852	    -13.23865145	      3.16413592	    -25.47769996	      0.99590904	     19.45441018	     -6.74826536	      3.65751904	      0.00000000	      0.00000000	      0.00000000	      0.00000000	      0.00000000	      9.04270458	    -13.82653758	     -1.24011547	    -13.17596333
      0.67500000	      1.49440324	      3.73038867	     13.93436011	      0.01972135	      0.99432533	      0.28033127	     25.10079013	     -6.71966126	    -11.74572735	    -18.34394354	     12.02514587	    -13.50280747	      4.14872226	    -24.86501580	      1.23020978	     19.13798996	     -9.01531675	      2.68441007	      0.00000000	      0.00000000	      0.00000000	      0.00000000	      0.00000000	      8.80930056	    -13.76580957	     -1.19250138	    -12.85850665
      0.67916667	      1.58170766	      3.54612943	     13.91523137	      0.02648919	      0.99391175	      0.28055789	     25.18637506	     -6.48365194	    -11.55641745	    -19.21202523	     11.74261314	    -13.47201457	      4.15489508	    -24.97541984	      1.03675100	     19.15224455	     -9.44203493	      2.89611360	      0.00000000	      0.00000000	      0.00000000	      0.00000000	      0.00000000	      8.47766484	    -13.72231319	     -0.86322621	    -12.91834607
      0.68333333	      1.74626276	      3.30162911	     13.65599529	      0.03333329	      0.99340597	      0.28105144	     25.33378507	     -6.12648145	    -11.43545871	    -20.25851185	     11.26748289	    -13.39957478	      4.33158249	    -24.89695889	      0.96698008	     18.47982168	    -10.72465035	      2.55180608	      0.00000000	      0.00000000	      0.00000000	      0.00000000	      0.00000000	      8.18620515	    -13.71372341	     -0.48345261	    -12.93726087
      0.68750000	      1.25221836	      3.23552446	     13.99495730	      0.03876404	      0.99223307	      0.28093489	     26.09065236	     -6.28024892	    -11.24933907	    -21.24471791	     10.52873096	    -14.00063588	      5.46235427	    -23.11139386	      1.30069283	     18.47571152	    -14.83510818	      0.57459952	      0.00000000	      0.00000000	      0.00000000	      0.00000000	      0.00000000	      7.77420373	    -13.19635576	     -0.41353496	    -13.19821297
      0.69166667	      1.34933051	      2.94758892	     13.87075362	      0.04548777	      0.99179664	      0.28128360	     26.19435542	     -5.92060997	    -11.15562585	    -22.11140089	     10.24337708	    -13.90614855	      5.75231288	    -22.90928581	      1.13321706	     18.09765221	    -16.08933496	      0.32509766	      0.00000000	      0.00000000	      0.00000000	      0.00000000	      0.00000000	      7.34318011	    -13.13803121	     -0.01418158	    -13.01360454
      0.69583333	      1.37413491	      2.67644519	     13.85124087	      0.05198203	      0.99127262	      0.28144726	     26.35262429	     -5.64586649	    -11.12232905	    -22.97126846	      9.85074275	    -14.05505059	      6.05142200	    -22.43212207	      1.01870157	     17.77784360	    -17.86254138	     -0.18881079	      0.00000000	      0.00000000	      0.00000000	      0.00000000	      0.00000000	      6.98118152	    -13.00868636	      0.38598645	    -12.97399610
      0.70000000	      1.50209018	      2.35741617	     13.66894238	      0.05878123	      0.99094136	      0.28194673	     26.38746333	     -5.21044017	    -11.01931360	    -23.75968037	      9.61736457	    -13.97051056	      6.16928522	    -22.26307585	      0.81109463	     17.32042004	    -19.01366982	     -0.30331078	      0.00000000	      0.00000000	      0.00000000	      0.00000000	      0.00000000	      6.55154926	    -12.96000592	      0.80639636	    -12.92227657
      0.70416667	      1.58431810	      2.00656463	     13.60808518	      0.06530969	      0.99058159	      0.28216264	     26.40970501	     -4.80765104	    -10.98994713	    -24.44529955	      9.37374698	    -14.02021015	      6.31623233	    -21.82222186	      0.60655490	     16.94659285	    -20.71972829	     -0.73462456	      0.00000000	      0.00000000	      0.00000000	      0.00000000	      0.00000000	      6.07419887	    -12.89750692	      1.29201085	    -12.72215019
